<svg width="325" height="64" viewBox="0 0 325 64" fill="none" xmlns="http://www.w3.org/2000/svg">
<g opacity="0.8">
<circle r="5" transform="matrix(-1 0 0 1 250 5)" fill="#FD9D28"/>
<circle r="5" transform="matrix(-1 0 0 1 215 5)" fill="#FD9D28"/>
<circle r="5" transform="matrix(-1 0 0 1 320 5)" fill="#FD9D28"/>
<circle r="5" transform="matrix(-1 0 0 1 180 5)" fill="#FD9D28"/>
<circle r="5" transform="matrix(-1 0 0 1 285 5)" fill="#FD9D28"/>
<circle r="5" transform="matrix(-1 0 0 1 145 5)" fill="#FD9D28"/>
<circle r="5" transform="matrix(-1 0 0 1 110 5)" fill="#FD9D28"/>
<circle r="5" transform="matrix(-1 0 0 1 250 5)" fill="#FD9D28"/>
<circle r="5" transform="matrix(-1 0 0 1 215 5)" fill="#FD9D28"/>
<circle r="5" transform="matrix(-1 0 0 1 320 5)" fill="#FD9D28"/>
<circle r="5" transform="matrix(-1 0 0 1 180 5)" fill="#FD9D28"/>
<circle r="5" transform="matrix(-1 0 0 1 285 5)" fill="#FD9D28"/>
<circle r="5" transform="matrix(-1 0 0 1 145 5)" fill="#FD9D28"/>
<circle r="5" transform="matrix(-1 0 0 1 110 5)" fill="#FD9D28"/>
<circle r="5" transform="matrix(-1 0 0 1 75 5)" fill="#FD9D28"/>
<circle r="5" transform="matrix(-1 0 0 1 40 5)" fill="#FD9D28"/>
<circle r="5" transform="matrix(-1 0 0 1 5 5)" fill="#FD9D28"/>
<circle r="5" transform="matrix(-1 0 0 1 250 32)" fill="#FD9D28"/>
<circle r="5" transform="matrix(-1 0 0 1 215 32)" fill="#FD9D28"/>
<circle r="5" transform="matrix(-1 0 0 1 320 32)" fill="#FD9D28"/>
<circle r="5" transform="matrix(-1 0 0 1 180 32)" fill="#FD9D28"/>
<circle r="5" transform="matrix(-1 0 0 1 285 32)" fill="#FD9D28"/>
<circle r="5" transform="matrix(-1 0 0 1 145 32)" fill="#FD9D28"/>
<circle r="5" transform="matrix(-1 0 0 1 110 32)" fill="#FD9D28"/>
<circle r="5" transform="matrix(-1 0 0 1 250 32)" fill="#FD9D28"/>
<circle r="5" transform="matrix(-1 0 0 1 215 32)" fill="#FD9D28"/>
<circle r="5" transform="matrix(-1 0 0 1 320 32)" fill="#FD9D28"/>
<circle r="5" transform="matrix(-1 0 0 1 180 32)" fill="#FD9D28"/>
<circle r="5" transform="matrix(-1 0 0 1 285 32)" fill="#FD9D28"/>
<circle r="5" transform="matrix(-1 0 0 1 145 32)" fill="#FD9D28"/>
<circle r="5" transform="matrix(-1 0 0 1 110 32)" fill="#FD9D28"/>
<circle r="5" transform="matrix(-1 0 0 1 75 32)" fill="#FD9D28"/>
<circle r="5" transform="matrix(-1 0 0 1 40 32)" fill="#FD9D28"/>
<circle r="5" transform="matrix(-1 0 0 1 5 32)" fill="#FD9D28"/>
<circle r="5" transform="matrix(-1 0 0 1 250 59)" fill="#FD9D28"/>
<circle r="5" transform="matrix(-1 0 0 1 215 59)" fill="#FD9D28"/>
<circle r="5" transform="matrix(-1 0 0 1 320 59)" fill="#FD9D28"/>
<circle r="5" transform="matrix(-1 0 0 1 180 59)" fill="#FD9D28"/>
<circle r="5" transform="matrix(-1 0 0 1 285 59)" fill="#FD9D28"/>
<circle r="5" transform="matrix(-1 0 0 1 145 59)" fill="#FD9D28"/>
<circle r="5" transform="matrix(-1 0 0 1 110 59)" fill="#FD9D28"/>
<circle r="5" transform="matrix(-1 0 0 1 250 59)" fill="#FD9D28"/>
<circle r="5" transform="matrix(-1 0 0 1 215 59)" fill="#FD9D28"/>
<circle r="5" transform="matrix(-1 0 0 1 320 59)" fill="#FD9D28"/>
<circle r="5" transform="matrix(-1 0 0 1 180 59)" fill="#FD9D28"/>
<circle r="5" transform="matrix(-1 0 0 1 285 59)" fill="#FD9D28"/>
<circle r="5" transform="matrix(-1 0 0 1 145 59)" fill="#FD9D28"/>
<circle r="5" transform="matrix(-1 0 0 1 110 59)" fill="#FD9D28"/>
<circle r="5" transform="matrix(-1 0 0 1 75 59)" fill="#FD9D28"/>
<circle r="5" transform="matrix(-1 0 0 1 40 59)" fill="#FD9D28"/>
<circle r="5" transform="matrix(-1 0 0 1 5 59)" fill="#FD9D28"/>
</g>
</svg>
