<svg width="51" height="50" viewBox="0 0 51 50" fill="none" xmlns="http://www.w3.org/2000/svg">
<g clip-path="url(#clip0)">
<path d="M30.1931 25C30.1931 27.6428 28.0214 29.7852 25.3424 29.7852C22.6634 29.7852 20.4917 27.6428 20.4917 25C20.4917 22.3572 22.6634 20.2148 25.3424 20.2148C28.0214 20.2148 30.1931 22.3572 30.1931 25Z" fill="#937643"/>
<path d="M36.6865 16.5337C36.4534 15.9104 36.0813 15.3462 35.598 14.8831C35.1285 14.4063 34.557 14.0393 33.9247 13.8092C33.412 13.6128 32.6417 13.379 31.2229 13.3152C29.6881 13.2462 29.2279 13.2313 25.3424 13.2313C21.4565 13.2313 20.9964 13.2458 19.462 13.3149C18.0432 13.379 17.2725 13.6128 16.7601 13.8092C16.1279 14.0393 15.5559 14.4063 15.0869 14.8831C14.6035 15.3462 14.2315 15.91 13.998 16.5337C13.7988 17.0395 13.5618 17.7998 13.4972 19.1994C13.4272 20.7131 13.4121 21.167 13.4121 25.0004C13.4121 28.8334 13.4272 29.2874 13.4972 30.8014C13.5618 32.2011 13.7988 32.9609 13.998 33.4668C14.2315 34.0905 14.6031 34.6543 15.0865 35.1174C15.5559 35.5942 16.1275 35.9612 16.7597 36.1912C17.2725 36.3881 18.0432 36.6219 19.462 36.6856C20.9964 36.7547 21.4561 36.7692 25.342 36.7692C29.2283 36.7692 29.6885 36.7547 31.2225 36.6856C32.6413 36.6219 33.412 36.3881 33.9247 36.1912C35.1939 35.7083 36.197 34.7188 36.6865 33.4668C36.8857 32.9609 37.1227 32.2011 37.1877 30.8014C37.2577 29.2874 37.2724 28.8334 37.2724 25.0004C37.2724 21.167 37.2577 20.7131 37.1877 19.1994C37.1231 17.7998 36.8861 17.0395 36.6865 16.5337ZM25.3424 32.3716C21.2152 32.3716 17.8695 29.0715 17.8695 25C17.8695 20.9286 21.2152 17.6285 25.3424 17.6285C29.4692 17.6285 32.8149 20.9286 32.8149 25C32.8149 29.0715 29.4692 32.3716 25.3424 32.3716ZM33.1104 19.0598C32.146 19.0598 31.3641 18.2885 31.3641 17.3371C31.3641 16.3857 32.146 15.6144 33.1104 15.6144C34.0748 15.6144 34.8567 16.3857 34.8567 17.3371C34.8563 18.2885 34.0748 19.0598 33.1104 19.0598Z" fill="#937643"/>
<path d="M25.3425 0C11.3483 0 0 11.195 0 25C0 38.805 11.3483 50 25.3425 50C39.3366 50 50.6849 38.805 50.6849 25C50.6849 11.195 39.3366 0 25.3425 0ZM39.8068 30.9185C39.7364 32.4467 39.4901 33.49 39.1305 34.4032C38.3745 36.3316 36.8293 37.8559 34.8745 38.6017C33.9491 38.9565 32.8911 39.1991 31.3424 39.2689C29.7906 39.3387 29.2949 39.3555 25.3429 39.3555C21.3904 39.3555 20.8951 39.3387 19.3429 39.2689C17.7942 39.1991 16.7362 38.9565 15.8108 38.6017C14.8394 38.2412 13.9601 37.6762 13.2331 36.9457C12.493 36.2289 11.9203 35.3611 11.5548 34.4032C11.1952 33.4904 10.9489 32.4467 10.8785 30.9189C10.807 29.3877 10.7903 28.8986 10.7903 25C10.7903 21.1014 10.807 20.6123 10.8781 19.0815C10.9485 17.5533 11.1944 16.51 11.5541 15.5968C11.9195 14.6389 12.4926 13.7711 13.2331 13.0543C13.9597 12.3238 14.8394 11.7588 15.8104 11.3983C16.7362 11.0435 17.7938 10.8009 19.3429 10.7311C20.8947 10.6613 21.3904 10.6445 25.3425 10.6445C29.2945 10.6445 29.7902 10.6613 31.342 10.7315C32.8911 10.8009 33.9488 11.0435 34.8745 11.3979C35.8455 11.7584 36.7252 12.3238 37.4522 13.0543C38.1923 13.7714 38.7654 14.6389 39.1305 15.5968C39.4905 16.51 39.7364 17.5533 39.8072 19.0815C39.878 20.6123 39.8946 21.1014 39.8946 25C39.8946 28.8986 39.878 29.3877 39.8068 30.9185Z" fill="#937643"/>
</g>
<defs>
<clipPath id="clip0">
<rect width="50.6849" height="50" fill="white"/>
</clipPath>
</defs>
</svg>
