<svg width="50" height="50" viewBox="0 0 50 50" fill="none" xmlns="http://www.w3.org/2000/svg">
<path d="M25 0C11.195 0 0 11.195 0 25C0 38.805 11.195 50 25 50C38.805 50 50 38.805 50 25C50 11.195 38.805 0 25 0ZM25.5299 39.5557C25.5295 39.5557 25.5302 39.5557 25.5299 39.5557H25.5238C23.0194 39.5546 20.5585 38.9267 18.3731 37.735L10.4412 39.8151L12.5641 32.0637C11.2545 29.7955 10.5656 27.2221 10.5667 24.5857C10.5701 16.3383 17.2825 9.62868 25.5299 9.62868C29.5322 9.6302 33.2893 11.1881 36.1141 14.0152C38.9393 16.8427 40.4942 20.6009 40.4926 24.5975C40.4892 32.8453 33.7761 39.5557 25.5299 39.5557Z" fill="#937643"/>
<path d="M25.5353 12.1552C18.6753 12.1552 13.0963 17.7319 13.0933 24.5869C13.0925 26.936 13.7502 29.2236 14.9949 31.2031L15.2905 31.6734L14.034 36.2614L18.7409 35.0269L19.1953 35.2962C21.1045 36.4292 23.2934 37.0285 25.525 37.0293H25.5299C32.3846 37.0293 37.9636 31.4522 37.9666 24.5968C37.9678 21.2746 36.6753 18.1511 34.3274 15.8012C31.9795 13.4514 28.8567 12.1563 25.5353 12.1552ZM32.8503 29.932C32.5387 30.8048 31.0452 31.6017 30.3269 31.7093C29.6826 31.8054 28.8678 31.8455 27.9721 31.5613C27.4289 31.3889 26.7327 31.1588 25.8405 30.7739C22.0902 29.155 19.6408 25.3799 19.4539 25.1305C19.267 24.881 17.9272 23.1037 17.9272 21.2639C17.9272 19.4244 18.8931 18.52 19.2357 18.1461C19.5786 17.7719 19.9838 17.6785 20.2329 17.6785C20.482 17.6785 20.7314 17.6807 20.9493 17.6914C21.1789 17.7029 21.4871 17.6041 21.7904 18.3331C22.1021 19.0815 22.8497 20.9209 22.9432 21.1079C23.0367 21.2952 23.0988 21.5134 22.9745 21.7628C22.8497 22.0123 22.4355 22.5506 22.0399 23.0412C21.8739 23.2468 21.6576 23.4299 21.8758 23.8041C22.0937 24.1779 22.8444 25.4021 23.9556 26.3931C25.3838 27.6665 26.5885 28.0609 26.9624 28.2482C27.3358 28.4351 27.554 28.4039 27.7722 28.1548C27.99 27.9053 28.7068 27.0634 28.9559 26.6891C29.205 26.3149 29.4545 26.3775 29.7971 26.5022C30.14 26.6266 31.9779 27.5311 32.3518 27.718C32.7256 27.9053 32.9747 27.9987 33.0682 28.1548C33.162 28.3108 33.162 29.0588 32.8503 29.932Z" fill="#937643"/>
</svg>
